<?xml version="1.0" encoding="UTF-8"?><svg id="Layer_2" xmlns="http://www.w3.org/2000/svg" viewBox="0 0 428.54 50.19"><defs><style>.cls-1{stroke-width:.27px;}.cls-1,.cls-2{fill:none;stroke:#fff;stroke-miterlimit:10;}.cls-2{stroke-width:.55px;}.cls-3{fill:#fff;stroke-width:0px;}</style></defs><g id="Layer_1-2"><path class="cls-2" d="M19.48,3.96c1.84-.32,3.87-.5,6.05-.46,1.85.04,3.58.23,5.18.52"/><line class="cls-2" x1="19.61" y1="6.59" x2="19.61" y2="3.7"/><line class="cls-2" x1="30.57" y1="6.59" x2="30.57" y2="3.75"/><line class="cls-2" x1="21.4" y1="3.65" x2="21.4" y2="6.59"/><line class="cls-2" x1="24.16" y1="3.48" x2="24.16" y2="6.51"/><line class="cls-2" x1="27.07" y1="3.51" x2="27.07" y2="6.51"/><line class="cls-2" x1="25.81" y1="4.87" x2="25.81" y2="6.59"/><line class="cls-2" x1="28.42" y1="5.06" x2="28.42" y2="6.51"/><line class="cls-2" x1="22.96" y1="4.92" x2="22.96" y2="6.51"/><path class="cls-2" d="M19.57,5.32c1.81-.32,3.8-.5,5.95-.46,1.82.04,3.52.23,5.1.52"/><rect class="cls-2" x="18.48" y="6.41" width="13.22" height="1.72" rx=".86" ry=".86"/><rect class="cls-1" x="21.86" y="8.93" width="8.71" height=".74"/><rect class="cls-1" x="21.86" y="10.34" width="8.66" height=".77"/><rect class="cls-1" x="22.07" y="14.12" width="1.83" height="1.23"/><rect class="cls-1" x="29.82" y="14.36" width=".75" height="1.23"/><rect class="cls-1" x="22.07" y="24.12" width="1.83" height="1.23"/><rect class="cls-1" x="29.82" y="24.36" width=".75" height="1.23"/><line class="cls-2" x1="19.61" y1="8.06" x2="19.61" y2="29.93"/><line class="cls-2" x1="30.57" y1="8.06" x2="30.57" y2="28.07"/><path class="cls-3" d="M38.11,40.63c-9.21,2.23-13.67-6.51-23.48-5.86-3.55.23-7.05,1.65-10.42,4.21,1.49,2.22,3.29,4.18,5.38,5.83,2.32-2.57,4.85-4.05,7.51-4.4,2.25-.29,3.8.34,5.59,1.07,10.54,4.29,21.41,2.01,26.09-8.96-2.32,3.96-6.38,7.05-10.68,8.1Z"/><path class="cls-3" d="M28.64,44.02c-8.04-1.07-10.47-6.63-18.39,1.29,12.29,9.06,29.45,5,36.74-7.99-4.56,6.03-10.95,7.68-18.36,6.7Z"/><path class="cls-3" d="M26.73.06C5.99-1.27-6.75,21.41,3.77,38.29c.69-.58,2.69-1.94,4.78-2.83,16.05-6.86,20,10.4,33.59,2.61C58.73,28.13,47.73,1.4,26.73.06ZM36.71,37.52c-12.67,0-17.91-20.37-35.12-8.55C-.24,15.54,7.76,9.2,8.1,8.32h.11C16.43.04,29.66-1.04,39.06,5.83c.42.26,2.91,2.38,3.23,2.83,4.19,4.36,6.53,10.11,6.61,16.19.07,7.1-5.48,12.66-12.19,12.66Z"/><path class="cls-3" d="M27.71,30.3c5.65-1.1,10.8.54,13.84,5.29,1.35-.66,2.53-1.55,3.54-2.67-4.28-5.27-11.4-5.74-17.38-2.62Z"/><path class="cls-3" d="M36.66,32.12c-5.14-2.68-10.72-.48-10.81-.48,4.55,3.69,9.06,6.6,14.94,4.29-.11-.11-1.28-2.29-4.13-3.8Z"/><path class="cls-3" d="M29.1,28.77c5.94-2.3,12.05-1.52,16.53,3.51.89-1.15,1.56-2.46,1.97-3.88-6.63-4.38-12.54-3.94-18.5.37Z"/><path class="cls-3" d="M25.85,31.64c.09,0,5.67-2.19,10.81.48,2.84,1.51,4.02,3.69,4.13,3.8-5.88,2.32-10.39-.6-14.94-4.29Z"/><path class="cls-3" d="M45.62,32.28c-4.48-5.03-10.59-5.81-16.53-3.51,5.95-4.31,11.87-4.74,18.5-.37-.41,1.42-1.08,2.73-1.97,3.88Z"/><path class="cls-3" d="M55.65,3.35h7.75l7.87,33.31h.12L80.17,3.35h7.81l8.54,33.31h.12L104.76,3.35h7.75l-12.02,43.55h-7.75l-8.72-33.31h-.12l-8.91,33.31h-7.87L55.65,3.35Z"/><path class="cls-3" d="M116.71,3.35h6.95v6.59h-6.95V3.35ZM116.71,15.37h6.95v31.54h-6.95V15.37Z"/><path class="cls-3" d="M131.23,15.37h6.59v4.64l.12.12c1.06-1.75,2.44-3.12,4.15-4.12,1.71-1,3.6-1.49,5.67-1.49,3.46,0,6.18.89,8.17,2.68,1.99,1.79,2.99,4.47,2.99,8.05v21.66h-6.95v-19.83c-.08-2.48-.61-4.28-1.59-5.4-.98-1.12-2.5-1.68-4.57-1.68-1.18,0-2.24.21-3.17.64-.94.43-1.73,1.02-2.38,1.77-.65.75-1.16,1.64-1.52,2.65s-.55,2.09-.55,3.23v18.61h-6.95V15.37Z"/><path class="cls-3" d="M171.49,36.78c.2,2.03.98,3.46,2.32,4.27,1.34.81,2.95,1.22,4.82,1.22.65,0,1.39-.05,2.23-.15.83-.1,1.62-.29,2.35-.58.73-.28,1.33-.7,1.8-1.25.47-.55.68-1.27.64-2.17-.04-.89-.37-1.63-.98-2.2-.61-.57-1.39-1.03-2.35-1.37-.96-.34-2.04-.64-3.26-.88s-2.46-.51-3.72-.79c-1.3-.28-2.55-.63-3.75-1.04-1.2-.41-2.28-.96-3.23-1.65-.96-.69-1.72-1.58-2.29-2.65-.57-1.08-.85-2.41-.85-4,0-1.71.42-3.14,1.25-4.3.83-1.16,1.89-2.09,3.17-2.81,1.28-.71,2.7-1.21,4.27-1.49,1.57-.28,3.06-.43,4.48-.43,1.63,0,3.18.17,4.67.52,1.48.35,2.83.91,4.03,1.68,1.2.77,2.2,1.78,2.99,3.02.79,1.24,1.29,2.74,1.49,4.48h-7.26c-.33-1.67-1.09-2.78-2.29-3.35-1.2-.57-2.57-.85-4.12-.85-.49,0-1.07.04-1.74.12-.67.08-1.3.23-1.89.46-.59.22-1.09.55-1.49.98-.41.43-.61.99-.61,1.68,0,.85.29,1.55.88,2.07.59.53,1.36.97,2.32,1.31.96.35,2.04.64,3.26.88,1.22.24,2.48.51,3.78.79,1.26.29,2.5.63,3.72,1.04,1.22.41,2.31.96,3.26,1.65.96.69,1.73,1.57,2.32,2.62.59,1.06.88,2.36.88,3.9,0,1.87-.43,3.46-1.28,4.76s-1.96,2.36-3.32,3.17c-1.36.81-2.88,1.4-4.54,1.77-1.67.37-3.31.55-4.94.55-1.99,0-3.83-.22-5.52-.67-1.69-.45-3.15-1.13-4.39-2.04-1.24-.92-2.22-2.05-2.93-3.42-.71-1.36-1.09-2.98-1.13-4.85h6.95Z"/><path class="cls-3" d="M194.73,15.37h5.25V5.91h6.95v9.46h6.28v5.19h-6.28v16.84c0,.73.03,1.36.09,1.89.06.53.2.98.43,1.34.22.37.56.64,1.01.82.45.18,1.06.28,1.83.28.49,0,.98,0,1.46-.03.49-.02.98-.09,1.46-.21v5.37c-.77.08-1.52.16-2.26.24-.73.08-1.49.12-2.26.12-1.83,0-3.3-.17-4.42-.52-1.12-.34-1.99-.85-2.62-1.52-.63-.67-1.06-1.51-1.28-2.53-.22-1.02-.36-2.18-.4-3.48v-18.6h-5.25v-5.19Z"/><path class="cls-3" d="M244.63,39.89c0,.85.11,1.46.34,1.83.22.37.66.55,1.31.55h.73c.28,0,.61-.04.98-.12v4.82c-.24.08-.56.17-.95.28-.39.1-.78.19-1.19.27-.41.08-.81.14-1.22.18-.41.04-.75.06-1.04.06-1.42,0-2.6-.28-3.54-.85-.94-.57-1.55-1.57-1.83-2.99-1.38,1.34-3.08,2.32-5.09,2.93-2.01.61-3.96.91-5.83.91-1.42,0-2.79-.19-4.09-.58-1.3-.39-2.45-.96-3.45-1.71-1-.75-1.79-1.71-2.38-2.87-.59-1.16-.88-2.51-.88-4.06,0-1.95.36-3.54,1.07-4.76.71-1.22,1.65-2.17,2.81-2.87,1.16-.69,2.46-1.19,3.9-1.49,1.44-.3,2.9-.54,4.36-.7,1.26-.24,2.46-.42,3.6-.52,1.14-.1,2.14-.27,3.02-.52.87-.24,1.56-.62,2.07-1.13.51-.51.76-1.27.76-2.29,0-.89-.21-1.63-.64-2.2-.43-.57-.96-1.01-1.59-1.31-.63-.3-1.33-.51-2.1-.61-.77-.1-1.51-.15-2.2-.15-1.95,0-3.56.41-4.82,1.22-1.26.81-1.97,2.07-2.14,3.78h-6.95c.12-2.03.61-3.72,1.46-5.06s1.94-2.42,3.26-3.23c1.32-.81,2.82-1.38,4.48-1.71,1.67-.32,3.38-.49,5.12-.49,1.54,0,3.07.16,4.57.49,1.5.33,2.86.85,4.06,1.59,1.2.73,2.17,1.68,2.9,2.84.73,1.16,1.1,2.57,1.1,4.24v16.23ZM237.67,31.1c-1.06.69-2.36,1.11-3.9,1.25-1.55.14-3.09.36-4.64.64-.73.12-1.44.3-2.14.52-.69.22-1.3.53-1.83.92-.53.39-.95.9-1.25,1.53-.3.63-.46,1.39-.46,2.29,0,.77.22,1.42.67,1.95.45.53.99.95,1.62,1.25.63.31,1.32.52,2.07.64.75.12,1.43.18,2.04.18.77,0,1.61-.1,2.5-.31.89-.2,1.74-.55,2.53-1.04.79-.49,1.45-1.11,1.98-1.86.53-.75.79-1.68.79-2.78v-5.18Z"/><path class="cls-3" d="M252.13,15.37h6.53v6.1h.12c.2-.85.6-1.69,1.19-2.5.59-.81,1.3-1.55,2.14-2.23.83-.67,1.76-1.21,2.78-1.62,1.02-.41,2.05-.61,3.11-.61.81,0,1.37.02,1.68.06.3.04.62.08.95.12v6.71c-.49-.08-.99-.15-1.49-.21-.51-.06-1.01-.09-1.49-.09-1.18,0-2.29.23-3.32.7-1.04.47-1.94,1.16-2.71,2.07-.77.92-1.38,2.04-1.83,3.39-.45,1.34-.67,2.89-.67,4.64v15.01h-6.95V15.37Z"/><path class="cls-3" d="M301.02,9.51c-2.22-1.55-4.85-2.32-7.9-2.32-2.6,0-4.83.49-6.68,1.46-1.85.98-3.38,2.29-4.57,3.93-1.2,1.65-2.08,3.53-2.65,5.64-.57,2.12-.85,4.31-.85,6.59,0,2.48.28,4.83.85,7.05.57,2.22,1.45,4.15,2.65,5.79,1.2,1.65,2.73,2.96,4.61,3.93,1.87.98,4.11,1.46,6.71,1.46,1.91,0,3.61-.31,5.09-.95,1.48-.63,2.77-1.5,3.84-2.62,1.08-1.12,1.92-2.45,2.53-4,.61-1.54.98-3.21,1.1-5h5.8c-.57,5.49-2.46,9.76-5.67,12.81-3.21,3.05-7.6,4.57-13.18,4.57-3.38,0-6.32-.58-8.84-1.74-2.52-1.16-4.62-2.75-6.28-4.79-1.67-2.03-2.92-4.43-3.75-7.2-.83-2.76-1.25-5.73-1.25-8.91s.45-6.15,1.34-8.94c.89-2.79,2.21-5.21,3.93-7.29,1.73-2.07,3.88-3.71,6.47-4.91,2.58-1.2,5.54-1.8,8.88-1.8,2.28,0,4.43.3,6.47.92,2.03.61,3.84,1.5,5.43,2.68,1.59,1.18,2.91,2.65,3.97,4.42,1.06,1.77,1.75,3.81,2.07,6.13h-5.8c-.65-3.09-2.08-5.41-4.3-6.95Z"/><path class="cls-3" d="M323.38,3.35v43.55h-5.19V3.35h5.19Z"/><path class="cls-3" d="M330.7,24.67c.65-2.01,1.63-3.76,2.93-5.25,1.3-1.48,2.91-2.65,4.82-3.51,1.91-.85,4.11-1.28,6.59-1.28s4.73.43,6.62,1.28c1.89.85,3.49,2.02,4.79,3.51,1.3,1.49,2.28,3.23,2.93,5.25.65,2.01.98,4.18.98,6.5s-.33,4.47-.98,6.47c-.65,1.99-1.63,3.73-2.93,5.22-1.3,1.49-2.9,2.64-4.79,3.48-1.89.83-4.1,1.25-6.62,1.25s-4.68-.42-6.59-1.25c-1.91-.83-3.52-1.99-4.82-3.48-1.3-1.48-2.28-3.22-2.93-5.22-.65-1.99-.98-4.15-.98-6.47s.32-4.48.98-6.5ZM335.97,36.26c.51,1.49,1.21,2.72,2.1,3.72.89,1,1.94,1.76,3.14,2.29,1.2.53,2.47.79,3.81.79s2.61-.26,3.81-.79c1.2-.53,2.25-1.29,3.14-2.29.89-1,1.6-2.24,2.1-3.72.51-1.48.76-3.18.76-5.09s-.25-3.61-.76-5.09c-.51-1.48-1.21-2.74-2.1-3.75-.9-1.02-1.94-1.79-3.14-2.32-1.2-.53-2.47-.79-3.81-.79s-2.61.27-3.81.79c-1.2.53-2.25,1.3-3.14,2.32-.9,1.02-1.6,2.27-2.1,3.75-.51,1.48-.76,3.18-.76,5.09s.25,3.61.76,5.09Z"/><path class="cls-3" d="M387.67,46.9v-5h-.12c-1.1,1.95-2.5,3.39-4.21,4.3s-3.72,1.37-6.04,1.37c-2.07,0-3.8-.27-5.19-.82-1.38-.55-2.5-1.33-3.35-2.35-.85-1.02-1.45-2.23-1.8-3.63-.35-1.4-.52-2.96-.52-4.67V15.37h5.19v21.35c0,1.95.57,3.5,1.71,4.64,1.14,1.14,2.7,1.71,4.7,1.71,1.59,0,2.96-.24,4.12-.73,1.16-.49,2.12-1.18,2.9-2.07.77-.89,1.35-1.94,1.74-3.14.39-1.2.58-2.51.58-3.93V15.37h5.19v31.54h-4.88Z"/><path class="cls-3" d="M423.36,46.9v-4.27h-.12c-.85,1.75-2.2,3.01-4.03,3.78-1.83.77-3.84,1.16-6.04,1.16-2.44,0-4.57-.45-6.37-1.34-1.81-.89-3.32-2.09-4.51-3.6-1.2-1.5-2.1-3.25-2.71-5.25-.61-1.99-.92-4.11-.92-6.34s.29-4.35.88-6.34c.59-1.99,1.48-3.73,2.68-5.22,1.2-1.48,2.7-2.66,4.51-3.54,1.81-.87,3.91-1.31,6.31-1.31.81,0,1.69.08,2.62.24.93.16,1.87.44,2.81.82.94.39,1.82.89,2.65,1.52.83.63,1.53,1.41,2.1,2.35h.12V3.35h5.19v43.55h-5.19ZM404.72,35.71c.39,1.4.98,2.65,1.77,3.75.79,1.1,1.81,1.97,3.05,2.62,1.24.65,2.69.98,4.36.98s3.23-.35,4.45-1.04,2.22-1.6,2.99-2.71c.77-1.12,1.33-2.39,1.68-3.81.35-1.42.52-2.87.52-4.33,0-1.54-.18-3.04-.55-4.48-.37-1.44-.95-2.71-1.74-3.81-.79-1.1-1.82-1.98-3.08-2.65-1.26-.67-2.79-1.01-4.57-1.01s-3.23.35-4.45,1.04c-1.22.69-2.2,1.61-2.93,2.75-.73,1.14-1.26,2.44-1.59,3.9-.33,1.46-.49,2.97-.49,4.51,0,1.46.19,2.9.58,4.3Z"/></g></svg>