<?xml version="1.0" encoding="UTF-8"?><svg id="Layer_2" xmlns="http://www.w3.org/2000/svg" viewBox="0 0 50.18 50.19"><defs><style>.cls-1{stroke-width:.27px;}.cls-1,.cls-2{fill:none;stroke:#fff;stroke-miterlimit:10;}.cls-2{stroke-width:.55px;}.cls-3{fill:#fff;stroke-width:0px;}</style></defs><g id="Layer_1-2"><path class="cls-2" d="M19.48,3.96c1.84-.32,3.87-.5,6.05-.46,1.85.04,3.58.23,5.18.52"/><line class="cls-2" x1="19.61" y1="6.59" x2="19.61" y2="3.7"/><line class="cls-2" x1="30.57" y1="6.59" x2="30.57" y2="3.75"/><line class="cls-2" x1="21.4" y1="3.65" x2="21.4" y2="6.59"/><line class="cls-2" x1="24.16" y1="3.48" x2="24.16" y2="6.51"/><line class="cls-2" x1="27.07" y1="3.51" x2="27.07" y2="6.51"/><line class="cls-2" x1="25.81" y1="4.87" x2="25.81" y2="6.59"/><line class="cls-2" x1="28.42" y1="5.06" x2="28.42" y2="6.51"/><line class="cls-2" x1="22.96" y1="4.92" x2="22.96" y2="6.51"/><path class="cls-2" d="M19.57,5.32c1.81-.32,3.8-.5,5.95-.46,1.82.04,3.52.23,5.1.52"/><rect class="cls-2" x="18.48" y="6.41" width="13.22" height="1.72" rx=".86" ry=".86"/><rect class="cls-1" x="21.86" y="8.93" width="8.71" height=".74"/><rect class="cls-1" x="21.86" y="10.34" width="8.66" height=".77"/><rect class="cls-1" x="22.07" y="14.12" width="1.83" height="1.23"/><rect class="cls-1" x="29.82" y="14.36" width=".75" height="1.23"/><rect class="cls-1" x="22.07" y="24.12" width="1.83" height="1.23"/><rect class="cls-1" x="29.82" y="24.36" width=".75" height="1.23"/><line class="cls-2" x1="19.61" y1="8.06" x2="19.61" y2="29.93"/><line class="cls-2" x1="30.57" y1="8.06" x2="30.57" y2="28.07"/><path class="cls-3" d="M38.11,40.63c-9.21,2.23-13.67-6.51-23.48-5.86-3.55.23-7.05,1.65-10.42,4.21,1.49,2.22,3.29,4.18,5.38,5.83,2.32-2.57,4.85-4.05,7.51-4.4,2.25-.29,3.8.34,5.59,1.07,10.54,4.29,21.41,2.01,26.09-8.96-2.32,3.96-6.38,7.05-10.68,8.1Z"/><path class="cls-3" d="M28.64,44.02c-8.04-1.07-10.47-6.63-18.39,1.29,12.29,9.06,29.45,5,36.74-7.99-4.56,6.03-10.95,7.68-18.36,6.7Z"/><path class="cls-3" d="M26.73.06C5.99-1.27-6.75,21.41,3.77,38.29c.69-.58,2.69-1.94,4.78-2.83,16.05-6.86,20,10.4,33.59,2.61C58.73,28.13,47.73,1.4,26.73.06ZM36.71,37.52c-12.67,0-17.91-20.37-35.12-8.55C-.24,15.54,7.76,9.2,8.1,8.32h.11C16.43.04,29.66-1.04,39.06,5.83c.42.26,2.91,2.38,3.23,2.83,4.19,4.36,6.53,10.11,6.61,16.19.07,7.1-5.48,12.66-12.19,12.66Z"/><path class="cls-3" d="M27.71,30.3c5.65-1.1,10.8.54,13.84,5.29,1.35-.66,2.53-1.55,3.54-2.67-4.28-5.27-11.4-5.74-17.38-2.62Z"/><path class="cls-3" d="M36.66,32.12c-5.14-2.68-10.72-.48-10.81-.48,4.55,3.69,9.06,6.6,14.94,4.29-.11-.11-1.28-2.29-4.13-3.8Z"/><path class="cls-3" d="M29.1,28.77c5.94-2.3,12.05-1.52,16.53,3.51.89-1.15,1.56-2.46,1.97-3.88-6.63-4.38-12.54-3.94-18.5.37Z"/><path class="cls-3" d="M25.85,31.64c.09,0,5.67-2.19,10.81.48,2.84,1.51,4.02,3.69,4.13,3.8-5.88,2.32-10.39-.6-14.94-4.29Z"/><path class="cls-3" d="M45.62,32.28c-4.48-5.03-10.59-5.81-16.53-3.51,5.95-4.31,11.87-4.74,18.5-.37-.41,1.42-1.08,2.73-1.97,3.88Z"/></g></svg>